REM DIRINDEX 1\5,1\2\6,1\2\7,1\3\8,1\3\9,1\4\10,1\4\11,1\4\12
REM DIRNAME cjc026,folder01,folder02,folder03,folder04,folder05,folder06,folder07,folder08,folder09,folder10,folder11
TITLE ""
FILE "EJ_DB3000_5th_5C_03.mp3" MP3
  TRACK 01 AUDIO
    TITLE "0:"
    INDEX 01 00:00:00
  TRACK 02 AUDIO
    TITLE "9:cjc026_05635"
    INDEX 01 00:00:08
  TRACK 03 AUDIO
    TITLE "0:"
    INDEX 01 00:01:14
  TRACK 04 AUDIO
    TITLE "8:cjc026_05636"
    INDEX 01 00:01:51
  TRACK 05 AUDIO
    TITLE "0:"
    INDEX 01 00:02:68
  TRACK 06 AUDIO
    TITLE "9:cjc026_05637"
    INDEX 01 00:03:28
  TRACK 07 AUDIO
    TITLE "0:"
    INDEX 01 00:04:51
  TRACK 08 AUDIO
    TITLE "8:cjc026_05638"
    INDEX 01 00:05:11
  TRACK 09 AUDIO
    TITLE "0:"
    INDEX 01 00:06:33
  TRACK 10 AUDIO
    TITLE "9:cjc026_05639"
    INDEX 01 00:06:71
  TRACK 11 AUDIO
    TITLE "0:"
    INDEX 01 00:08:23
  TRACK 12 AUDIO
    TITLE "8:cjc026_05640"
    INDEX 01 00:08:56
  TRACK 13 AUDIO
    TITLE "0:"
    INDEX 01 00:10:11
  TRACK 14 AUDIO
    TITLE "9:cjc026_05641"
    INDEX 01 00:10:46
  TRACK 15 AUDIO
    TITLE "0:"
    INDEX 01 00:11:74
  TRACK 16 AUDIO
    TITLE "8:cjc026_05642"
    INDEX 01 00:12:34
  TRACK 17 AUDIO
    TITLE "0:"
    INDEX 01 00:13:61
  TRACK 18 AUDIO
    TITLE "9:cjc026_05643"
    INDEX 01 00:14:21
  TRACK 19 AUDIO
    TITLE "0:"
    INDEX 01 00:15:41
  TRACK 20 AUDIO
    TITLE "8:cjc026_05644"
    INDEX 01 00:16:04
  TRACK 21 AUDIO
    TITLE "0:"
    INDEX 01 00:17:37
  TRACK 22 AUDIO
    TITLE "9:cjc026_05645"
    INDEX 01 00:17:72
  TRACK 23 AUDIO
    TITLE "0:"
    INDEX 01 00:19:16
  TRACK 24 AUDIO
    TITLE "8:cjc026_05646"
    INDEX 01 00:19:51
  TRACK 25 AUDIO
    TITLE "0:"
    INDEX 01 00:21:07
  TRACK 26 AUDIO
    TITLE "9:cjc026_05647"
    INDEX 01 00:21:42
  TRACK 27 AUDIO
    TITLE "0:"
    INDEX 01 00:22:56
  TRACK 28 AUDIO
    TITLE "8:cjc026_05648"
    INDEX 01 00:23:16
  TRACK 29 AUDIO
    TITLE "0:"
    INDEX 01 00:24:46
  TRACK 30 AUDIO
    TITLE "9:cjc026_05649"
    INDEX 01 00:25:09
  TRACK 31 AUDIO
    TITLE "0:"
    INDEX 01 00:26:31
  TRACK 32 AUDIO
    TITLE "8:cjc026_05650"
    INDEX 01 00:26:69
  TRACK 33 AUDIO
    TITLE "0:"
    INDEX 01 00:28:33
  TRACK 34 AUDIO
    TITLE "9:cjc026_05651"
    INDEX 01 00:28:68
  TRACK 35 AUDIO
    TITLE "0:"
    INDEX 01 00:30:09
  TRACK 36 AUDIO
    TITLE "8:cjc026_05652"
    INDEX 01 00:30:47
  TRACK 37 AUDIO
    TITLE "0:"
    INDEX 01 00:32:11
  TRACK 38 AUDIO
    TITLE "9:cjc026_05653"
    INDEX 01 00:32:46
  TRACK 39 AUDIO
    TITLE "0:"
    INDEX 01 00:33:73
  TRACK 40 AUDIO
    TITLE "8:cjc026_05654"
    INDEX 01 00:34:36
  TRACK 41 AUDIO
    TITLE "0:"
    INDEX 01 00:35:56
  TRACK 42 AUDIO
    TITLE "9:cjc026_05655"
    INDEX 01 00:36:16
  TRACK 43 AUDIO
    TITLE "0:"
    INDEX 01 00:37:33
  TRACK 44 AUDIO
    TITLE "8:cjc026_05656"
    INDEX 01 00:37:68
  TRACK 45 AUDIO
    TITLE "0:"
    INDEX 01 00:39:23
  TRACK 46 AUDIO
    TITLE "9:cjc026_05657"
    INDEX 01 00:39:61
  TRACK 47 AUDIO
    TITLE "0:"
    INDEX 01 00:41:19
  TRACK 48 AUDIO
    TITLE "8:cjc026_05658"
    INDEX 01 00:41:57
  TRACK 49 AUDIO
    TITLE "0:"
    INDEX 01 00:43:23
  TRACK 50 AUDIO
    TITLE "9:cjc026_05659"
    INDEX 01 00:43:58
  TRACK 51 AUDIO
    TITLE "0:"
    INDEX 01 00:45:13
  TRACK 52 AUDIO
    TITLE "8:cjc026_05660"
    INDEX 01 00:45:51
  TRACK 53 AUDIO
    TITLE "0:"
    INDEX 01 00:47:30
  TRACK 54 AUDIO
    TITLE "9:cjc026_05661"
    INDEX 01 00:47:68
  TRACK 55 AUDIO
    TITLE "0:"
    INDEX 01 00:49:26
  TRACK 56 AUDIO
    TITLE "8:cjc026_05662"
    INDEX 01 00:49:61
  TRACK 57 AUDIO
    TITLE "0:"
    INDEX 01 00:51:11
  TRACK 58 AUDIO
    TITLE "9:cjc026_05663"
    INDEX 01 00:51:49
  TRACK 59 AUDIO
    TITLE "0:"
    INDEX 01 00:52:74
  TRACK 60 AUDIO
    TITLE "8:cjc026_05664"
    INDEX 01 00:53:37
  TRACK 61 AUDIO
    TITLE "0:"
    INDEX 01 00:54:59
